<mxfile host="Electron" modified="2024-11-21T17:28:05.119Z" agent="Mozilla/5.0 (Windows NT 10.0; Win64; x64) AppleWebKit/537.36 (KHTML, like Gecko) draw.io/24.5.3 Chrome/124.0.6367.207 Electron/30.0.6 Safari/537.36" etag="3hwk2ATdr8by5kTBGCry" version="24.5.3" type="device">
  <diagram name="Page-1" id="s39b4DrjpuMmn1QRbg7P">
    <mxGraphModel dx="1900" dy="1721" grid="1" gridSize="10" guides="1" tooltips="1" connect="1" arrows="1" fold="1" page="1" pageScale="1" pageWidth="850" pageHeight="1100" math="0" shadow="0">
      <root>
        <mxCell id="0" />
        <mxCell id="1" parent="0" />
        <mxCell id="2Ec3089QmEi5QG__vyva-1" value="Actividad" style="rounded=0;whiteSpace=wrap;html=1;" parent="1" vertex="1">
          <mxGeometry x="380" y="80" width="120" height="60" as="geometry" />
        </mxCell>
        <mxCell id="2Ec3089QmEi5QG__vyva-71" style="edgeStyle=orthogonalEdgeStyle;rounded=0;orthogonalLoop=1;jettySize=auto;html=1;entryX=1;entryY=0.5;entryDx=0;entryDy=0;endArrow=none;endFill=0;" parent="1" source="2Ec3089QmEi5QG__vyva-2" target="2Ec3089QmEi5QG__vyva-70" edge="1">
          <mxGeometry relative="1" as="geometry" />
        </mxCell>
        <mxCell id="2Ec3089QmEi5QG__vyva-2" value="Artista" style="rounded=0;whiteSpace=wrap;html=1;" parent="1" vertex="1">
          <mxGeometry x="380" y="285" width="120" height="60" as="geometry" />
        </mxCell>
        <mxCell id="2Ec3089QmEi5QG__vyva-3" value="Ubicación" style="rounded=0;whiteSpace=wrap;html=1;" parent="1" vertex="1">
          <mxGeometry x="40" y="290" width="120" height="60" as="geometry" />
        </mxCell>
        <mxCell id="2Ec3089QmEi5QG__vyva-4" value="Evento" style="rounded=0;whiteSpace=wrap;html=1;" parent="1" vertex="1">
          <mxGeometry x="40" y="80" width="120" height="60" as="geometry" />
        </mxCell>
        <mxCell id="2Ec3089QmEi5QG__vyva-68" style="rounded=0;orthogonalLoop=1;jettySize=auto;html=1;entryX=0;entryY=0.5;entryDx=0;entryDy=0;endArrow=none;endFill=0;" parent="1" source="2Ec3089QmEi5QG__vyva-5" target="2Ec3089QmEi5QG__vyva-67" edge="1">
          <mxGeometry relative="1" as="geometry" />
        </mxCell>
        <mxCell id="2Ec3089QmEi5QG__vyva-5" value="Asistente" style="rounded=0;whiteSpace=wrap;html=1;" parent="1" vertex="1">
          <mxGeometry x="40" y="-140" width="120" height="60" as="geometry" />
        </mxCell>
        <mxCell id="2Ec3089QmEi5QG__vyva-6" value="" style="rhombus;whiteSpace=wrap;html=1;fillColor=#FFFFFF;" parent="1" vertex="1">
          <mxGeometry x="670" y="10" width="80" height="40" as="geometry" />
        </mxCell>
        <mxCell id="2Ec3089QmEi5QG__vyva-11" value="" style="rhombus;whiteSpace=wrap;html=1;fillColor=#000000;" parent="1" vertex="1">
          <mxGeometry x="670" y="80" width="80" height="40" as="geometry" />
        </mxCell>
        <mxCell id="2Ec3089QmEi5QG__vyva-19" style="edgeStyle=orthogonalEdgeStyle;rounded=0;orthogonalLoop=1;jettySize=auto;html=1;exitX=0;exitY=0.5;exitDx=0;exitDy=0;entryX=0;entryY=0.5;entryDx=0;entryDy=0;endArrow=none;endFill=0;" parent="1" source="2Ec3089QmEi5QG__vyva-13" target="2Ec3089QmEi5QG__vyva-1" edge="1">
          <mxGeometry relative="1" as="geometry" />
        </mxCell>
        <mxCell id="2Ec3089QmEi5QG__vyva-13" value="" style="rhombus;whiteSpace=wrap;html=1;fillColor=#000000;rotation=-180;" parent="1" vertex="1">
          <mxGeometry x="240" y="90" width="80" height="40" as="geometry" />
        </mxCell>
        <mxCell id="2Ec3089QmEi5QG__vyva-14" value="" style="triangle;whiteSpace=wrap;html=1;fillColor=#FFFFFF;rotation=-180;" parent="1" vertex="1">
          <mxGeometry x="240" y="90" width="40" height="40" as="geometry" />
        </mxCell>
        <mxCell id="2Ec3089QmEi5QG__vyva-18" value="" style="endArrow=none;html=1;rounded=0;exitX=1;exitY=0.5;exitDx=0;exitDy=0;entryX=1;entryY=0.5;entryDx=0;entryDy=0;startArrow=none;startFill=0;endFill=0;" parent="1" source="2Ec3089QmEi5QG__vyva-4" target="2Ec3089QmEi5QG__vyva-14" edge="1">
          <mxGeometry width="50" height="50" relative="1" as="geometry">
            <mxPoint x="370" y="210" as="sourcePoint" />
            <mxPoint x="420" y="160" as="targetPoint" />
          </mxGeometry>
        </mxCell>
        <mxCell id="2Ec3089QmEi5QG__vyva-25" style="rounded=0;orthogonalLoop=1;jettySize=auto;html=1;entryX=0;entryY=0.5;entryDx=0;entryDy=0;endArrow=none;endFill=0;" parent="1" source="2Ec3089QmEi5QG__vyva-20" target="2Ec3089QmEi5QG__vyva-4" edge="1">
          <mxGeometry relative="1" as="geometry" />
        </mxCell>
        <mxCell id="2Ec3089QmEi5QG__vyva-20" value="&lt;font style=&quot;font-size: 8px;&quot;&gt;Nombre&lt;/font&gt;" style="ellipse;whiteSpace=wrap;html=1;fillColor=#0050ef;fontColor=#ffffff;strokeColor=#001DBC;" parent="1" vertex="1">
          <mxGeometry x="-50" y="135" width="50" height="30" as="geometry" />
        </mxCell>
        <mxCell id="2Ec3089QmEi5QG__vyva-26" style="rounded=0;orthogonalLoop=1;jettySize=auto;html=1;endArrow=none;endFill=0;" parent="1" source="2Ec3089QmEi5QG__vyva-21" edge="1">
          <mxGeometry relative="1" as="geometry">
            <mxPoint x="40" y="110" as="targetPoint" />
          </mxGeometry>
        </mxCell>
        <mxCell id="2Ec3089QmEi5QG__vyva-21" value="&lt;font style=&quot;font-size: 8px;&quot;&gt;Actividad&lt;/font&gt;" style="ellipse;whiteSpace=wrap;html=1;fillColor=#0050ef;fontColor=#ffffff;strokeColor=#001DBC;" parent="1" vertex="1">
          <mxGeometry x="-50" y="95" width="50" height="30" as="geometry" />
        </mxCell>
        <mxCell id="2Ec3089QmEi5QG__vyva-31" style="rounded=0;orthogonalLoop=1;jettySize=auto;html=1;endArrow=none;endFill=0;" parent="1" source="2Ec3089QmEi5QG__vyva-23" edge="1">
          <mxGeometry relative="1" as="geometry">
            <mxPoint x="40" y="110" as="targetPoint" />
          </mxGeometry>
        </mxCell>
        <mxCell id="2Ec3089QmEi5QG__vyva-23" value="&lt;font style=&quot;font-size: 8px;&quot;&gt;Precio&lt;/font&gt;" style="ellipse;whiteSpace=wrap;html=1;fillColor=#0050ef;fontColor=#ffffff;strokeColor=#001DBC;" parent="1" vertex="1">
          <mxGeometry x="-50" y="55" width="50" height="30" as="geometry" />
        </mxCell>
        <mxCell id="2Ec3089QmEi5QG__vyva-30" style="edgeStyle=orthogonalEdgeStyle;rounded=0;orthogonalLoop=1;jettySize=auto;html=1;entryX=0.5;entryY=1;entryDx=0;entryDy=0;endArrow=none;endFill=0;" parent="1" source="2Ec3089QmEi5QG__vyva-27" target="2Ec3089QmEi5QG__vyva-4" edge="1">
          <mxGeometry relative="1" as="geometry" />
        </mxCell>
        <mxCell id="2Ec3089QmEi5QG__vyva-27" value="" style="rhombus;whiteSpace=wrap;html=1;fillColor=#000000;rotation=90;" parent="1" vertex="1">
          <mxGeometry x="60" y="190" width="80" height="40" as="geometry" />
        </mxCell>
        <mxCell id="2Ec3089QmEi5QG__vyva-29" style="edgeStyle=orthogonalEdgeStyle;rounded=0;orthogonalLoop=1;jettySize=auto;html=1;entryX=0.5;entryY=0;entryDx=0;entryDy=0;endArrow=none;endFill=0;" parent="1" target="2Ec3089QmEi5QG__vyva-3" edge="1">
          <mxGeometry relative="1" as="geometry">
            <mxPoint x="100" y="250" as="sourcePoint" />
          </mxGeometry>
        </mxCell>
        <mxCell id="2Ec3089QmEi5QG__vyva-40" style="rounded=0;orthogonalLoop=1;jettySize=auto;html=1;endArrow=none;endFill=0;" parent="1" source="2Ec3089QmEi5QG__vyva-34" edge="1">
          <mxGeometry relative="1" as="geometry">
            <mxPoint x="500" y="110" as="targetPoint" />
          </mxGeometry>
        </mxCell>
        <mxCell id="2Ec3089QmEi5QG__vyva-34" value="&lt;font style=&quot;font-size: 8px;&quot;&gt;Dirección&lt;/font&gt;" style="ellipse;whiteSpace=wrap;html=1;fillColor=#0050ef;fontColor=#ffffff;strokeColor=#001DBC;" parent="1" vertex="1">
          <mxGeometry x="550" y="110" width="50" height="30" as="geometry" />
        </mxCell>
        <mxCell id="2Ec3089QmEi5QG__vyva-39" style="rounded=0;orthogonalLoop=1;jettySize=auto;html=1;entryX=1;entryY=0.5;entryDx=0;entryDy=0;endArrow=none;endFill=0;" parent="1" source="2Ec3089QmEi5QG__vyva-35" target="2Ec3089QmEi5QG__vyva-1" edge="1">
          <mxGeometry relative="1" as="geometry" />
        </mxCell>
        <mxCell id="2Ec3089QmEi5QG__vyva-35" value="&lt;font style=&quot;font-size: 8px;&quot;&gt;Actividad&lt;/font&gt;" style="ellipse;whiteSpace=wrap;html=1;fillColor=#0050ef;fontColor=#ffffff;strokeColor=#001DBC;" parent="1" vertex="1">
          <mxGeometry x="550" y="70" width="50" height="30" as="geometry" />
        </mxCell>
        <mxCell id="2Ec3089QmEi5QG__vyva-38" style="rounded=0;orthogonalLoop=1;jettySize=auto;html=1;entryX=1;entryY=0.5;entryDx=0;entryDy=0;endArrow=none;endFill=0;" parent="1" source="2Ec3089QmEi5QG__vyva-36" target="2Ec3089QmEi5QG__vyva-1" edge="1">
          <mxGeometry relative="1" as="geometry" />
        </mxCell>
        <mxCell id="2Ec3089QmEi5QG__vyva-36" value="&lt;font style=&quot;font-size: 8px;&quot;&gt;Nombre&lt;/font&gt;" style="ellipse;whiteSpace=wrap;html=1;fillColor=#0050ef;fontColor=#ffffff;strokeColor=#001DBC;" parent="1" vertex="1">
          <mxGeometry x="550" y="30" width="50" height="30" as="geometry" />
        </mxCell>
        <mxCell id="2Ec3089QmEi5QG__vyva-41" style="rounded=0;orthogonalLoop=1;jettySize=auto;html=1;entryX=1;entryY=0.5;entryDx=0;entryDy=0;endArrow=none;endFill=0;" parent="1" source="2Ec3089QmEi5QG__vyva-37" target="2Ec3089QmEi5QG__vyva-1" edge="1">
          <mxGeometry relative="1" as="geometry" />
        </mxCell>
        <mxCell id="2Ec3089QmEi5QG__vyva-37" value="&lt;font style=&quot;font-size: 8px;&quot;&gt;Fecha&lt;/font&gt;" style="ellipse;whiteSpace=wrap;html=1;fillColor=#0050ef;fontColor=#ffffff;strokeColor=#001DBC;" parent="1" vertex="1">
          <mxGeometry x="550" y="150" width="50" height="30" as="geometry" />
        </mxCell>
        <mxCell id="2Ec3089QmEi5QG__vyva-48" style="rounded=0;orthogonalLoop=1;jettySize=auto;html=1;entryX=1;entryY=0.5;entryDx=0;entryDy=0;" parent="1" source="2Ec3089QmEi5QG__vyva-42" target="2Ec3089QmEi5QG__vyva-2" edge="1">
          <mxGeometry relative="1" as="geometry">
            <mxPoint x="510" y="315.0000000000001" as="targetPoint" />
          </mxGeometry>
        </mxCell>
        <mxCell id="2Ec3089QmEi5QG__vyva-42" value="&lt;font style=&quot;font-size: 8px;&quot;&gt;Dirección&lt;/font&gt;" style="ellipse;whiteSpace=wrap;html=1;fillColor=#0050ef;fontColor=#ffffff;strokeColor=#001DBC;" parent="1" vertex="1">
          <mxGeometry x="550" y="325" width="50" height="30" as="geometry" />
        </mxCell>
        <mxCell id="2Ec3089QmEi5QG__vyva-47" style="rounded=0;orthogonalLoop=1;jettySize=auto;html=1;" parent="1" source="2Ec3089QmEi5QG__vyva-43" edge="1">
          <mxGeometry relative="1" as="geometry">
            <mxPoint x="500" y="315.0000000000001" as="targetPoint" />
          </mxGeometry>
        </mxCell>
        <mxCell id="2Ec3089QmEi5QG__vyva-43" value="&lt;font style=&quot;font-size: 8px;&quot;&gt;Biografía&lt;/font&gt;" style="ellipse;whiteSpace=wrap;html=1;fillColor=#0050ef;fontColor=#ffffff;strokeColor=#001DBC;" parent="1" vertex="1">
          <mxGeometry x="550" y="285" width="50" height="30" as="geometry" />
        </mxCell>
        <mxCell id="2Ec3089QmEi5QG__vyva-46" style="rounded=0;orthogonalLoop=1;jettySize=auto;html=1;entryX=1;entryY=0.5;entryDx=0;entryDy=0;" parent="1" source="2Ec3089QmEi5QG__vyva-44" target="2Ec3089QmEi5QG__vyva-2" edge="1">
          <mxGeometry relative="1" as="geometry" />
        </mxCell>
        <mxCell id="2Ec3089QmEi5QG__vyva-44" value="&lt;font style=&quot;font-size: 8px;&quot;&gt;Nombre&lt;/font&gt;" style="ellipse;whiteSpace=wrap;html=1;fillColor=#0050ef;fontColor=#ffffff;strokeColor=#001DBC;" parent="1" vertex="1">
          <mxGeometry x="550" y="245" width="50" height="30" as="geometry" />
        </mxCell>
        <mxCell id="2Ec3089QmEi5QG__vyva-49" style="rounded=0;orthogonalLoop=1;jettySize=auto;html=1;entryX=1;entryY=0.5;entryDx=0;entryDy=0;" parent="1" source="2Ec3089QmEi5QG__vyva-45" target="2Ec3089QmEi5QG__vyva-2" edge="1">
          <mxGeometry relative="1" as="geometry">
            <mxPoint x="500" y="315.0000000000001" as="targetPoint" />
          </mxGeometry>
        </mxCell>
        <mxCell id="2Ec3089QmEi5QG__vyva-45" value="&lt;font style=&quot;font-size: 8px;&quot;&gt;Fecha&lt;/font&gt;" style="ellipse;whiteSpace=wrap;html=1;fillColor=#0050ef;fontColor=#ffffff;strokeColor=#001DBC;" parent="1" vertex="1">
          <mxGeometry x="550" y="365" width="50" height="30" as="geometry" />
        </mxCell>
        <mxCell id="2Ec3089QmEi5QG__vyva-57" style="rounded=0;orthogonalLoop=1;jettySize=auto;html=1;entryX=0;entryY=0.5;entryDx=0;entryDy=0;endArrow=none;endFill=0;" parent="1" source="2Ec3089QmEi5QG__vyva-50" target="2Ec3089QmEi5QG__vyva-3" edge="1">
          <mxGeometry relative="1" as="geometry" />
        </mxCell>
        <mxCell id="2Ec3089QmEi5QG__vyva-50" value="&lt;font style=&quot;font-size: 8px;&quot;&gt;Ciudad/Pueblo&lt;/font&gt;" style="ellipse;whiteSpace=wrap;html=1;fillColor=#0050ef;fontColor=#ffffff;strokeColor=#001DBC;" parent="1" vertex="1">
          <mxGeometry x="-60" y="300" width="60" height="30" as="geometry" />
        </mxCell>
        <mxCell id="2Ec3089QmEi5QG__vyva-56" style="rounded=0;orthogonalLoop=1;jettySize=auto;html=1;entryX=0;entryY=0.5;entryDx=0;entryDy=0;endArrow=none;endFill=0;" parent="1" source="2Ec3089QmEi5QG__vyva-51" target="2Ec3089QmEi5QG__vyva-3" edge="1">
          <mxGeometry relative="1" as="geometry" />
        </mxCell>
        <mxCell id="2Ec3089QmEi5QG__vyva-51" value="&lt;font style=&quot;font-size: 8px;&quot;&gt;Dirección&lt;/font&gt;" style="ellipse;whiteSpace=wrap;html=1;fillColor=#0050ef;fontColor=#ffffff;strokeColor=#001DBC;" parent="1" vertex="1">
          <mxGeometry x="-60" y="260" width="60" height="30" as="geometry" />
        </mxCell>
        <mxCell id="2Ec3089QmEi5QG__vyva-55" style="rounded=0;orthogonalLoop=1;jettySize=auto;html=1;entryX=0;entryY=0.5;entryDx=0;entryDy=0;endArrow=none;endFill=0;" parent="1" source="2Ec3089QmEi5QG__vyva-52" target="2Ec3089QmEi5QG__vyva-3" edge="1">
          <mxGeometry relative="1" as="geometry" />
        </mxCell>
        <mxCell id="2Ec3089QmEi5QG__vyva-52" value="&lt;font style=&quot;font-size: 8px;&quot;&gt;Aforo&lt;/font&gt;" style="ellipse;whiteSpace=wrap;html=1;fillColor=#0050ef;fontColor=#ffffff;strokeColor=#001DBC;" parent="1" vertex="1">
          <mxGeometry x="-60" y="220" width="60" height="30" as="geometry" />
        </mxCell>
        <mxCell id="2Ec3089QmEi5QG__vyva-58" style="rounded=0;orthogonalLoop=1;jettySize=auto;html=1;entryX=0;entryY=0.5;entryDx=0;entryDy=0;endArrow=none;endFill=0;" parent="1" source="2Ec3089QmEi5QG__vyva-53" target="2Ec3089QmEi5QG__vyva-3" edge="1">
          <mxGeometry relative="1" as="geometry" />
        </mxCell>
        <mxCell id="2Ec3089QmEi5QG__vyva-53" value="&lt;font style=&quot;font-size: 8px;&quot;&gt;Precio alquiler&lt;/font&gt;" style="ellipse;whiteSpace=wrap;html=1;fillColor=#0050ef;fontColor=#ffffff;strokeColor=#001DBC;" parent="1" vertex="1">
          <mxGeometry x="-60" y="340" width="60" height="30" as="geometry" />
        </mxCell>
        <mxCell id="2Ec3089QmEi5QG__vyva-59" style="rounded=0;orthogonalLoop=1;jettySize=auto;html=1;entryX=0;entryY=0.5;entryDx=0;entryDy=0;endArrow=none;endFill=0;" parent="1" source="2Ec3089QmEi5QG__vyva-54" target="2Ec3089QmEi5QG__vyva-3" edge="1">
          <mxGeometry relative="1" as="geometry" />
        </mxCell>
        <mxCell id="2Ec3089QmEi5QG__vyva-54" value="&lt;font style=&quot;font-size: 8px;&quot;&gt;Caracterísitcas&lt;/font&gt;" style="ellipse;whiteSpace=wrap;html=1;fillColor=#0050ef;fontColor=#ffffff;strokeColor=#001DBC;" parent="1" vertex="1">
          <mxGeometry x="-60" y="380" width="60" height="30" as="geometry" />
        </mxCell>
        <mxCell id="2Ec3089QmEi5QG__vyva-64" style="rounded=0;orthogonalLoop=1;jettySize=auto;html=1;entryX=0;entryY=0.5;entryDx=0;entryDy=0;endArrow=none;endFill=0;" parent="1" source="2Ec3089QmEi5QG__vyva-60" target="2Ec3089QmEi5QG__vyva-5" edge="1">
          <mxGeometry relative="1" as="geometry" />
        </mxCell>
        <mxCell id="2Ec3089QmEi5QG__vyva-60" value="&lt;font style=&quot;font-size: 8px;&quot;&gt;Email&lt;/font&gt;" style="ellipse;whiteSpace=wrap;html=1;fillColor=#0050ef;fontColor=#ffffff;strokeColor=#001DBC;" parent="1" vertex="1">
          <mxGeometry x="-50" y="-90" width="50" height="30" as="geometry" />
        </mxCell>
        <mxCell id="2Ec3089QmEi5QG__vyva-65" style="rounded=0;orthogonalLoop=1;jettySize=auto;html=1;entryX=0;entryY=0.5;entryDx=0;entryDy=0;endArrow=none;endFill=0;" parent="1" source="2Ec3089QmEi5QG__vyva-61" target="2Ec3089QmEi5QG__vyva-5" edge="1">
          <mxGeometry relative="1" as="geometry" />
        </mxCell>
        <mxCell id="2Ec3089QmEi5QG__vyva-61" value="&lt;font style=&quot;font-size: 8px;&quot;&gt;Telefono&lt;/font&gt;" style="ellipse;whiteSpace=wrap;html=1;fillColor=#0050ef;fontColor=#ffffff;strokeColor=#001DBC;" parent="1" vertex="1">
          <mxGeometry x="-50" y="-130" width="50" height="30" as="geometry" />
        </mxCell>
        <mxCell id="2Ec3089QmEi5QG__vyva-66" style="rounded=0;orthogonalLoop=1;jettySize=auto;html=1;entryX=0;entryY=0.5;entryDx=0;entryDy=0;endArrow=none;endFill=0;" parent="1" source="2Ec3089QmEi5QG__vyva-62" target="2Ec3089QmEi5QG__vyva-5" edge="1">
          <mxGeometry relative="1" as="geometry" />
        </mxCell>
        <mxCell id="2Ec3089QmEi5QG__vyva-62" value="&lt;font style=&quot;font-size: 8px;&quot;&gt;Nombre&lt;/font&gt;" style="ellipse;whiteSpace=wrap;html=1;fillColor=#0050ef;fontColor=#ffffff;strokeColor=#001DBC;" parent="1" vertex="1">
          <mxGeometry x="-50" y="-170" width="50" height="30" as="geometry" />
        </mxCell>
        <mxCell id="2Ec3089QmEi5QG__vyva-69" style="rounded=0;orthogonalLoop=1;jettySize=auto;html=1;entryX=0.5;entryY=0;entryDx=0;entryDy=0;endArrow=none;endFill=0;" parent="1" source="2Ec3089QmEi5QG__vyva-67" target="2Ec3089QmEi5QG__vyva-4" edge="1">
          <mxGeometry relative="1" as="geometry" />
        </mxCell>
        <mxCell id="2Ec3089QmEi5QG__vyva-67" value="" style="rhombus;whiteSpace=wrap;html=1;fillColor=#000000;rotation=90;" parent="1" vertex="1">
          <mxGeometry x="60" y="-30" width="80" height="40" as="geometry" />
        </mxCell>
        <mxCell id="2Ec3089QmEi5QG__vyva-73" style="edgeStyle=orthogonalEdgeStyle;rounded=0;orthogonalLoop=1;jettySize=auto;html=1;entryX=0.5;entryY=1;entryDx=0;entryDy=0;endArrow=none;endFill=0;" parent="1" source="2Ec3089QmEi5QG__vyva-70" target="2Ec3089QmEi5QG__vyva-1" edge="1">
          <mxGeometry relative="1" as="geometry" />
        </mxCell>
        <mxCell id="2Ec3089QmEi5QG__vyva-70" value="" style="rhombus;whiteSpace=wrap;html=1;fillColor=#000000;rotation=90;" parent="1" vertex="1">
          <mxGeometry x="400" y="190" width="80" height="40" as="geometry" />
        </mxCell>
        <mxCell id="Ox22HO9pu3pavmarwt-c-2" style="rounded=0;orthogonalLoop=1;jettySize=auto;html=1;entryX=0.5;entryY=0;entryDx=0;entryDy=0;endArrow=none;endFill=0;" edge="1" parent="1" source="Ox22HO9pu3pavmarwt-c-1" target="2Ec3089QmEi5QG__vyva-27">
          <mxGeometry relative="1" as="geometry" />
        </mxCell>
        <mxCell id="Ox22HO9pu3pavmarwt-c-1" value="" style="ellipse;whiteSpace=wrap;html=1;" vertex="1" parent="1">
          <mxGeometry x="190" y="195" width="40" height="30" as="geometry" />
        </mxCell>
      </root>
    </mxGraphModel>
  </diagram>
</mxfile>
